<svg xmlns="http://www.w3.org/2000/svg" version="1.1" xmlns:xlink="http://www.w3.org/1999/xlink" xmlns:svgjs="http://svgjs.com/svgjs" width="1440" height="560" preserveAspectRatio="none" viewBox="0 0 1440 560"><g mask="url(&quot;#SvgjsMask1034&quot;)" fill="none"><rect width="1440" height="560" x="0" y="0" fill="rgba(21, 67, 96, 1)"></rect><path d="M0,367.309C76.014,358.483,154.539,380.563,224.162,348.803C299.349,314.506,376.721,262.316,402.377,183.759C427.679,106.286,361.032,30.253,354.733,-51.003C347.784,-140.656,414.485,-240.941,363.704,-315.152C313.675,-388.264,205.571,-397.051,116.991,-398.436C40.482,-399.632,-20.188,-339.972,-94.641,-322.316C-175.17,-303.219,-276.93,-349.131,-335.88,-291.041C-394.111,-233.66,-366.815,-134.658,-368.032,-52.915C-369.1,18.828,-358.967,86.587,-342.539,156.432C-322.14,243.159,-336.183,358.349,-260.314,405.056C-184.107,451.971,-88.894,377.631,0,367.309" fill="#0e2c3e"></path><path d="M1440 880.972C1510.649 872.1759999999999 1583.101 911.9649999999999 1649.206 885.531 1720.711 856.938 1780.0529999999999 799.895 1814.722 731.13 1850.054 661.05 1845.838 580.541 1842.504 502.129 1838.836 415.85400000000004 1860.766 308.15700000000004 1794.3899999999999 252.92000000000002 1725.916 195.937 1621.404 252.459 1532.694 244.312 1465.608 238.151 1401.729 190.59500000000003 1337.512 210.959 1273.567 231.23700000000002 1248.997 306.688 1198.119 350.409 1135.347 404.351 1019.3720000000001 415.977 1004.246 497.348 989.306 577.72 1100.971 624.986 1133.106 700.154 1166.493 778.252 1121.226 899.039 1194.404 942.155 1268.596 985.8679999999999 1354.548 891.611 1440 880.972" fill="#1c5a82"></path></g><defs><mask id="SvgjsMask1034"><rect width="1440" height="560" fill="#ffffff"></rect></mask></defs></svg>